<svg width="287" height="287" viewBox="0 0 287 287" fill="none" xmlns="http://www.w3.org/2000/svg">
<g id="cloud1">
<path id="Vector" d="M222.08 117.953C222.095 117.331 222.172 116.715 222.172 116.086C222.172 82.4086 194.872 55.1087 161.194 55.1087C136.899 55.1087 115.984 69.3538 106.18 89.9154C101.931 87.7792 97.2056 86.4651 92.1268 86.4651C76.5599 86.4651 63.7201 97.7912 61.1922 112.636C42.6056 118.982 29.2214 136.555 29.2214 157.285C29.2214 183.34 50.3431 204.463 76.3909 204.485H222.172V204.478C245.976 204.355 265.223 185.038 265.223 161.219C265.223 137.354 245.921 118.022 222.08 117.953Z" fill="#98C4D8"/>
<path id="Vector_2" d="M214.212 110.085C214.227 109.462 214.304 108.847 214.304 108.218C214.304 74.5405 187.004 47.2406 153.327 47.2406C129.031 47.2406 108.116 61.4857 98.312 82.0473C94.0631 79.9111 89.3376 78.597 84.2589 78.597C68.692 78.597 55.8522 89.9231 53.3243 104.768C34.7377 111.114 21.3535 128.686 21.3535 149.417C21.3535 175.472 42.4752 196.594 68.523 196.617H214.304V196.609C238.108 196.487 257.356 177.17 257.356 153.351C257.355 129.486 238.053 110.154 214.212 110.085Z" fill="#EFD9A0"/>
<path id="Vector_3" d="M103.76 100.903C104.823 102.45 107.149 103.037 110.225 102.534C113.302 102.031 116.878 100.48 120.166 98.2208C123.455 95.9621 126.186 93.1811 127.76 90.4897C129.333 87.7983 129.62 85.4169 128.557 83.8695C127.494 82.322 125.169 81.7352 122.092 82.2381C119.015 82.7411 115.439 84.2926 112.151 86.5514C108.862 88.8101 106.131 91.5911 104.557 94.2825C102.984 96.9739 102.697 99.3553 103.76 100.903Z" fill="#FEFEFE"/>
<path id="Vector_4" d="M88.5598 125.657C88.9107 126.168 89.4342 126.553 90.1005 126.79C90.7668 127.026 91.5627 127.111 92.4429 127.038C93.3232 126.965 94.2704 126.736 95.2306 126.364C96.1907 125.992 97.145 125.485 98.0389 124.871C98.9329 124.257 99.7489 123.548 100.441 122.785C101.132 122.023 101.686 121.221 102.07 120.425C102.454 119.63 102.661 118.857 102.678 118.15C102.696 117.443 102.525 116.816 102.174 116.305C101.465 115.274 100.069 114.777 98.291 114.924C96.5133 115.072 94.5004 115.851 92.695 117.091C90.8896 118.331 89.4397 119.93 88.6642 121.537C87.8887 123.143 87.8512 124.625 88.5598 125.657Z" fill="#FEFEFE"/>
</g>
</svg>
