<svg width="627" height="627" viewBox="0 0 627 627" fill="none" xmlns="http://www.w3.org/2000/svg">
<g id="cloud3">
<path id="Vector" d="M485.17 257.688C485.203 256.328 485.372 254.984 485.372 253.609C485.372 180.035 425.731 120.394 352.157 120.394C299.079 120.394 253.387 151.515 231.968 196.435C222.686 191.768 212.362 188.898 201.267 188.898C167.258 188.898 139.207 213.641 133.685 246.072C93.0791 259.936 63.8391 298.326 63.8391 343.616C63.8391 400.537 109.983 446.683 166.889 446.733H485.372V446.716C537.375 446.447 579.425 404.247 579.425 352.21C579.425 300.072 537.257 257.839 485.17 257.688Z" fill="#98C4D8"/>
<path id="Vector_2" d="M467.982 240.499C468.014 239.139 468.183 237.795 468.183 236.42C468.183 162.846 408.542 103.205 334.968 103.205C281.89 103.205 236.198 134.326 214.779 179.246C205.497 174.579 195.173 171.709 184.078 171.709C150.069 171.709 122.019 196.452 116.496 228.883C75.8904 242.747 46.6504 281.137 46.6504 326.427C46.6504 383.348 92.7943 429.494 149.7 429.543H468.184V429.526C520.187 429.258 562.237 387.058 562.237 335.021C562.236 282.884 520.068 240.65 467.982 240.499Z" fill="#EFD9A0"/>
<path id="Vector_3" d="M226.681 220.439C229.003 223.82 234.084 225.102 240.806 224.003C247.528 222.904 255.34 219.515 262.524 214.58C269.708 209.645 275.675 203.57 279.113 197.69C282.551 191.81 283.177 186.608 280.855 183.227C278.533 179.846 273.452 178.564 266.73 179.663C260.008 180.762 252.196 184.151 245.012 189.086C237.828 194.021 231.861 200.096 228.423 205.976C224.986 211.856 224.359 217.058 226.681 220.439Z" fill="#FEFEFE"/>
<path id="Vector_4" d="M193.474 274.519C194.241 275.635 195.384 276.475 196.84 276.993C198.295 277.511 200.034 277.695 201.957 277.536C203.88 277.376 205.95 276.876 208.047 276.064C210.145 275.252 212.23 274.143 214.183 272.802C216.136 271.46 217.918 269.912 219.429 268.246C220.94 266.579 222.15 264.827 222.989 263.089C223.828 261.352 224.279 259.663 224.319 258.118C224.358 256.574 223.983 255.204 223.217 254.088C221.669 251.835 218.617 250.749 214.733 251.071C210.85 251.393 206.452 253.096 202.508 255.805C198.564 258.515 195.396 262.008 193.702 265.518C192.008 269.027 191.926 272.265 193.474 274.519Z" fill="#FEFEFE"/>
</g>
</svg>
