<svg width="120" height="120" viewBox="0 0 120 120" fill="none" xmlns="http://www.w3.org/2000/svg">
<g id="cloud2">
<path id="Vector" d="M92.8556 49.3183C92.8618 49.0581 92.8941 48.8008 92.8941 48.5377C92.8941 34.4565 81.4797 23.042 67.3984 23.042C57.24 23.042 48.4951 28.9981 44.3958 37.5953C42.6193 36.7021 40.6434 36.1527 38.5199 36.1527C32.0111 36.1527 26.6426 40.8883 25.5856 47.0951C17.8142 49.7486 12.218 57.096 12.218 65.7638C12.218 76.6579 21.0494 85.4896 31.9404 85.4991H92.8941V85.4958C102.847 85.4445 110.895 77.3678 110.895 67.4087C110.895 57.4301 102.824 49.3472 92.8556 49.3183Z" fill="#98C4D8"/>
<path id="Vector_2" d="M89.5658 46.0285C89.572 45.7683 89.6043 45.511 89.6043 45.2479C89.6043 31.1668 78.1899 19.7522 64.1086 19.7522C53.9502 19.7522 45.2053 25.7083 41.106 34.3055C39.3295 33.4123 37.3536 32.8629 35.2301 32.8629C28.7213 32.8629 23.3528 37.5985 22.2958 43.8053C14.5244 46.4588 8.92822 53.8062 8.92822 62.474C8.92822 73.3681 17.7596 82.1998 28.6507 82.2093H89.6044V82.206C99.5573 82.1547 107.605 74.078 107.605 64.1189C107.605 54.1405 99.5344 46.0574 89.5658 46.0285Z" fill="#EFD9A0"/>
<path id="Vector_3" d="M43.384 42.1893C43.8284 42.8363 44.8009 43.0817 46.0873 42.8714C47.3738 42.6611 48.869 42.0124 50.2439 41.0679C51.6188 40.1235 52.7609 38.9607 53.4188 37.8354C54.0768 36.7101 54.1967 35.7144 53.7523 35.0674C53.3078 34.4203 52.3354 34.175 51.0489 34.3853C49.7625 34.5956 48.2673 35.2443 46.8924 36.1887C45.5175 37.1331 44.3754 38.2959 43.7175 39.4212C43.0595 40.5466 42.9396 41.5423 43.384 42.1893Z" fill="#FEFEFE"/>
<path id="Vector_4" d="M37.0285 52.5394C37.1753 52.753 37.3942 52.9139 37.6727 53.013C37.9513 53.1121 38.2841 53.1474 38.6522 53.1169C39.0202 53.0864 39.4162 52.9907 39.8177 52.8352C40.2192 52.6797 40.6182 52.4676 40.9919 52.2108C41.3657 51.9541 41.7069 51.6578 41.9961 51.3389C42.2853 51.0199 42.5167 50.6846 42.6773 50.352C42.8378 50.0195 42.9243 49.6962 42.9318 49.4006C42.9393 49.105 42.8677 48.8429 42.7209 48.6294C42.4246 48.198 41.8406 47.9903 41.0973 48.0519C40.3541 48.1135 39.5124 48.4394 38.7576 48.958C38.0027 49.4765 37.3965 50.1451 37.0722 50.8167C36.748 51.4884 36.7323 52.1081 37.0285 52.5394Z" fill="#FEFEFE"/>
</g>
</svg>
