<svg width="367" height="541" viewBox="0 0 367 541" fill="none" xmlns="http://www.w3.org/2000/svg">
<g id="full-body">
<path id="path3954-8-5-3-0-1-4-1-0-3-1" fill-rule="evenodd" clip-rule="evenodd" d="M352.481 398.203C346.562 410.623 331.238 418.062 318.254 414.817C305.27 411.573 299.543 398.875 305.462 386.455C311.381 374.034 326.705 366.596 339.689 369.84C352.673 373.084 358.4 385.783 352.481 398.203Z" fill="#AB926C" stroke="black" stroke-width="1.90945" stroke-linecap="round" stroke-linejoin="round"/>
<path id="path4553-8-2-8-8-9-0-6-6" d="M275.647 396.159C279.553 406.529 354.227 379.192 350.486 367.274C315.248 215.248 280.839 228.586 267.679 231.535C248.002 246.746 253.804 299.226 275.647 396.159Z" fill="#E66FC0" stroke="black" stroke-width="1.52203"/>
<path id="rect3252-6-7-2-7-1-6-3-5-6-0" d="M211.667 382.067L207.694 382.067C144.939 382.072 94.0924 400.12 94.1245 422.378L94.2194 488.225C94.2515 510.483 145.151 528.523 207.905 528.518L211.878 528.518C274.633 528.513 325.48 510.465 325.448 488.207L325.353 422.36C325.321 400.102 274.422 382.062 211.667 382.067Z" fill="#5A1E3F" stroke="black" stroke-width="1.82528" stroke-linecap="round" stroke-linejoin="round"/>
<g id="path3928-9-81-8-0-49-3-5-5-8">
<path d="M259.265 521.013L258.086 474.545Z" fill="white"/>
<path d="M259.265 521.013L258.086 474.545" stroke="black" stroke-width="1.21077" stroke-linecap="round" stroke-linejoin="round"/>
</g>
<path id="path3932-5-3-3-6-1-5-5-0-2-2" fill-rule="evenodd" clip-rule="evenodd" d="M220.631 207.626C220.227 207.626 219.821 207.629 219.417 207.626C219.188 207.626 218.959 207.585 218.73 207.585C218.377 207.585 218.016 207.544 217.662 207.544V207.637C190.556 208.588 164.993 225.496 147.569 247.196C110.23 293.395 94.746 355.042 91.8518 414.488C92.3668 429.764 89.085 448.009 94.6747 461.38C115.939 476.225 154.082 479.534 180.034 483.504C186.938 484.002 197.915 484.356 209.833 484.712V484.753C211.084 484.794 212.275 484.794 213.508 484.823C213.631 484.823 213.748 484.826 213.87 484.823C225.792 485.035 236.775 485.202 243.697 485.035C269.839 482.307 308.115 480.82 330.19 467.008C336.527 453.923 334.281 435.547 335.658 420.317C336.126 360.817 324.144 298.513 289.465 250.596C273.289 228.095 248.715 209.991 221.697 207.749V207.614C221.344 207.614 220.983 207.573 220.63 207.573L220.631 207.626Z" fill="#DCB5C3" stroke="black" stroke-width="1.83179" stroke-linecap="round" stroke-linejoin="round"/>
<path id="path4010-7-3-7-4-8-5-4-5-9-7" d="M365.976 516.956C365.976 516.956 359.684 487.137 320.519 490.635C267.832 495.341 266.326 525.391 266.326 525.391C263.237 534.7 368.606 529.141 365.976 516.956Z" fill="#5A1E3F" stroke="black" stroke-width="1.90944"/>
<path id="path3954-8-5-7-3-4-8-9-1-7" fill-rule="evenodd" clip-rule="evenodd" d="M80.0256 430.11C87.9462 441.356 104.301 446.105 116.555 440.719C128.809 435.333 132.322 421.85 124.402 410.604C116.481 399.359 100.126 394.609 87.872 399.996C75.6178 405.382 72.105 418.865 80.0256 430.11Z" fill="#AB926C" stroke="black" stroke-width="1.90946" stroke-linecap="round" stroke-linejoin="round"/>
<g id="g4879">
<g id="g8444-11-0">
<path id="path8424-98-7" d="M145.237 359.155C162.526 350.362 157.853 298.366 169.259 292.128" stroke="#CA3F8A" stroke-width="4.54659" stroke-linecap="round" stroke-linejoin="bevel"/>
<path id="path8424-7-9-2" d="M204.516 354.15C185.898 348.391 181.081 296.407 168.718 292.177" stroke="#CA3F8A" stroke-width="4.54659" stroke-linecap="round" stroke-linejoin="bevel"/>
</g>
<g id="g8444-1-0-4">
<path id="path8424-9-6-6" d="M204.094 354.188C221.383 345.395 216.709 293.399 228.116 287.161" stroke="#CA3F8A" stroke-width="4.54659" stroke-linecap="round" stroke-linejoin="bevel"/>
<path id="path8424-7-6-9-9" d="M263.372 349.183C244.755 343.424 239.937 291.439 227.575 287.21" stroke="#CA3F8A" stroke-width="4.54659" stroke-linecap="round" stroke-linejoin="bevel"/>
</g>
<g id="g8444-7-1-8">
<path id="path8424-97-1-0" d="M262.442 350.198C279.731 341.405 275.057 289.408 286.464 283.171" stroke="#CA3F8A" stroke-width="4.54659" stroke-linecap="round" stroke-linejoin="bevel"/>
<path id="path8424-7-2-5-4" d="M321.72 345.193C303.103 339.433 298.285 287.449 285.923 283.22" stroke="#CA3F8A" stroke-width="4.54659" stroke-linecap="round" stroke-linejoin="bevel"/>
</g>
</g>
<path id="path4553-7-9-8-3-7-1-7" d="M137.492 412.843C134.256 424.201 46.9124 404.613 49.7838 391.65C72.366 227.804 112.7 237.605 127.876 239.1C152.406 244.418 151.184 308.443 137.492 412.843Z" fill="#E66FC0" stroke="black" stroke-width="1.66592"/>
<path id="rect4240-8-4-1-9-8" d="M205.75 16.7219H193.527C118.171 16.7219 57.0829 69.6961 57.0829 135.043V143.203C57.0829 208.55 118.171 261.524 193.527 261.524H205.75C281.106 261.524 342.195 208.55 342.195 143.203V135.043C342.195 69.6961 281.106 16.7219 205.75 16.7219Z" fill="#AB926C" stroke="black" stroke-width="1.90944" stroke-linecap="round" stroke-linejoin="bevel"/>
<path id="path4010-1-9-2-6-6-6-8-1-7-3-0" d="M105.456 526.756C105.456 526.756 109.876 489.373 166.087 491.901C241.704 495.301 248.407 532.611 248.407 532.611C254.21 544.046 103.567 542.037 105.456 526.756Z" fill="#5A1E3F" stroke="black" stroke-width="1.90944"/>
<g id="eye-left">
<path id="path458-3-6-66-7-2-8-7" d="M216.399 144.994C216.751 151.745 211.578 157.502 204.836 157.855C198.096 158.21 192.347 153.024 191.994 146.273C191.641 139.524 196.819 133.762 203.559 133.409C210.301 133.054 216.046 138.245 216.399 144.994Z" fill="#231F20"/>
</g>
<g id="eye-right">
<path id="path458-9-9-2-9-2-2-8" d="M322.017 136.971C322.37 143.723 317.197 149.479 310.454 149.833C303.715 150.188 297.965 145.002 297.613 138.25C297.26 131.501 302.438 125.74 309.178 125.386C315.92 125.031 321.665 130.223 322.017 136.971Z" fill="#231F20"/>
</g>
<path id="path4494-63-0-8" d="M85.4103 185.637C81.497 189.185 74.5763 187.659 70.3497 183.334C64.5267 177.377 65.0031 168.756 70.0139 164.321C72.9342 161.737 77.1076 160.617 81.4389 161.043" stroke="black" stroke-width="1.48058" stroke-linecap="round" stroke-linejoin="round"/>
<path id="path5157-4" opacity="0.99" fill-rule="evenodd" clip-rule="evenodd" d="M282.746 1.04119C279.412 1.08221 276.42 7.93159 273.2 8.69102C269.98 9.45067 265.837 5.16344 262.89 6.65097C259.943 8.13854 260.889 15.4518 258.435 17.4885C255.981 19.5252 248.872 15.9021 247.107 18.5084C246.263 19.7561 247.327 21.4933 248.507 23.3535C235.188 19.608 221.046 17.4887 206.25 17.4887H194.03C162.683 17.4887 133.776 26.5434 110.787 41.8413C113.222 37.5279 118.06 32.2423 116.26 29.8565C113.722 26.4929 100.314 33.0736 96.7854 30.4938C93.2562 27.9144 98.9622 17.3894 94.7489 15.8314C90.5355 14.2733 83.1117 21.8621 78.4569 21.1866C73.8017 20.5109 71.4895 10.8473 66.6195 11.3688C61.7495 11.8903 58.1395 22.4187 53.3823 23.7365C48.6251 25.0543 42.7089 16.2025 38.2357 18.509C33.7625 20.8158 34.0863 31.0727 30.2167 34.1915C26.3474 37.3103 18.1258 34.9651 15.0701 38.7818C12.0145 42.5978 17.7617 50.9558 15.7066 55.1016C13.6514 59.2477 1.84688 59.5312 1.06919 63.8988C0.291542 68.2668 11.8977 70.0804 12.27 74.3538C12.6422 78.6276 1.33492 88.1232 2.97858 92.0767C4.62216 96.0298 16.6904 91.7991 19.398 95.1367C22.1056 98.4737 16.3703 107.254 19.7798 109.927C23.1893 112.599 32.4722 107.584 36.7084 109.289C40.9443 110.994 41.0835 121.666 45.7454 122.422C49.9116 123.097 55.4554 115.199 60.001 113.242C58.3805 120.558 57.5826 128.071 57.5826 135.809V143.969C57.5826 153.667 58.8863 163.01 61.4011 172.019C59.6599 154.149 63.7596 136.273 72.9837 119.871C72.9973 119.871 73.1006 119.912 73.1106 119.871C73.3928 119.871 73.7063 119.83 74.0016 119.745C78.7274 118.378 80.817 107.899 85.2024 105.592C89.5879 103.286 96.6326 109.913 100.349 106.612C104.066 103.312 100.739 93.7986 103.913 90.037C107.087 86.2757 117.248 85.1386 119.06 80.857C119.796 79.1177 118.689 77.378 117.15 75.6294C125.252 70.6713 134.125 66.2041 143.752 62.4968L155.335 58.0346C212.868 35.8796 278.523 45.1198 319.529 77.5416H311.128C313.939 77.5416 317.269 78.1797 319.655 77.6678C320.543 78.372 321.464 79.1096 322.328 79.8355L325.765 78.5605C321.607 72.0234 316.712 65.902 311.255 60.2004C311.187 59.3547 311.232 58.621 311.636 58.0327C313.437 55.4191 321.932 56.005 322.965 53.0605C323.997 50.1155 316.132 46.191 316.473 43.1155C316.814 40.04 325.879 37.496 325.383 34.4455C324.887 31.3953 314.99 31.1909 313.673 28.3255C312.357 25.4601 318.882 20.4204 316.855 17.9976C314.829 15.575 308.206 18.2018 305.655 16.2126C303.103 14.2224 304.617 7.03483 301.581 5.75758C298.546 4.48097 293.333 10.1722 290.126 9.45532C286.919 8.73847 286.081 1.01703 282.746 1.04119Z" fill="#69383D" stroke="black" stroke-width="0.954731"/>
<path id="path4738-0-9-5-4-6-6" d="M248.207 192.036C256.563 210.569 284.045 205.246 285.473 186.138" stroke="black" stroke-width="1.90944" stroke-linecap="round" stroke-linejoin="round"/>
</g>
</svg>
