<svg width="48" height="48" viewBox="0 0 48 48" fill="none" xmlns="http://www.w3.org/2000/svg">
<g id="instagram">
<path id="Vector" d="M30.6675 7.5H17.331C14.7243 7.50199 12.2249 8.53839 10.3816 10.3816C8.53839 12.2249 7.50199 14.7243 7.5 17.331V30.6675C7.50159 33.2745 8.53781 35.7743 10.3811 37.6178C12.2244 39.4614 14.724 40.498 17.331 40.5H30.6675C33.2744 40.4976 35.7738 39.4609 37.617 37.6174C39.4602 35.7739 40.4965 33.2744 40.4985 30.6675V17.331C40.4973 14.724 39.4612 12.2242 37.6178 10.3808C35.7743 8.53734 33.2745 7.50119 30.6675 7.5ZM37.1805 30.6675C37.1801 32.3947 36.4938 34.0511 35.2724 35.2724C34.0511 36.4938 32.3947 37.1801 30.6675 37.1805H17.331C16.4758 37.1805 15.6289 37.012 14.8388 36.6847C14.0487 36.3574 13.3308 35.8776 12.7261 35.2728C12.1215 34.668 11.6419 33.95 11.3147 33.1598C10.9876 32.3696 10.8193 31.5227 10.8195 30.6675V17.331C10.8193 16.4758 10.9876 15.629 11.3148 14.8389C11.6419 14.0488 12.1215 13.3309 12.7262 12.7262C13.3309 12.1215 14.0488 11.6419 14.8389 11.3148C15.629 10.9876 16.4758 10.8193 17.331 10.8195H30.6675C32.3943 10.8199 34.0503 11.5061 35.2714 12.7271C36.4924 13.9482 37.1786 15.6042 37.179 17.331L37.1805 30.6675Z" fill="black"/>
<path id="Vector_2" d="M24 15.4681C19.293 15.4681 15.468 19.2946 15.468 24.0001C15.468 28.7056 19.2945 32.5321 24 32.5321C28.7055 32.5321 32.532 28.7056 32.532 24.0001C32.532 19.2946 28.707 15.4681 24 15.4681ZM24 29.2126C22.6176 29.2128 21.2917 28.6638 20.314 27.6864C19.3363 26.709 18.787 25.3833 18.7868 24.0008C18.7866 22.6184 19.3355 21.2925 20.3129 20.3148C21.2903 19.3371 22.6161 18.7878 23.9985 18.7876C25.381 18.7874 26.7069 19.3364 27.6845 20.3137C28.6622 21.2911 29.2116 22.6169 29.2118 23.9993C29.212 25.3818 28.663 26.7077 27.6856 27.6853C26.7082 28.663 25.3825 29.2124 24 29.2126ZM32.55 13.4866C32.9543 13.4869 33.3493 13.607 33.6853 13.8318C34.0213 14.0565 34.2831 14.3758 34.4377 14.7494C34.5922 15.1229 34.6326 15.5338 34.5537 15.9303C34.4747 16.3268 34.28 16.6909 33.9942 16.9768C33.7084 17.2626 33.3442 17.4573 32.9477 17.5362C32.5513 17.6151 32.1403 17.5748 31.7668 17.4202C31.3933 17.2657 31.074 17.0039 30.8492 16.6679C30.6244 16.3319 30.5043 15.9368 30.504 15.5326C30.504 14.4046 31.269 13.4866 32.55 13.4866Z" fill="black"/>
</g>
</svg>
