<svg width="450" height="450" viewBox="0 0 450 450" fill="none" xmlns="http://www.w3.org/2000/svg">
<g id="lightbulb 1">
<g id="bulbLight">
<path id="Vector" d="M322.875 150.891C322.594 147.516 322.031 144.141 321.328 140.906C321.328 140.766 321.328 140.766 321.328 140.625C315.422 110.672 296.578 85.2187 270.984 70.3125C269.016 69.0469 266.92 68.0625 264.811 67.0781C261.577 65.3906 258.342 63.9844 254.967 62.7187C250.327 61.0312 245.545 59.4844 240.623 58.5C237.811 57.7969 234.998 57.375 232.172 56.9531H232.031C180.422 63.8438 140.625 108 140.625 161.437C140.625 180.703 145.688 198.703 154.688 214.172C163.828 230.062 181.547 256.5 196.875 278.859V195.609C194.625 196.312 192.375 196.875 189.844 196.875C178.172 196.875 168.75 187.453 168.75 175.781C168.75 164.109 178.172 154.687 189.844 154.687C201.516 154.687 210.938 164.109 210.938 175.781V295.313H225V175.781C225 164.109 234.422 154.687 246.094 154.687C255.656 154.687 263.672 161.016 266.203 169.734C274.922 172.266 281.25 180.281 281.25 189.844C281.25 201.516 271.828 210.937 260.156 210.937C257.625 210.937 255.375 210.516 253.125 209.672V295.313H255.797C266.484 279.984 280.406 259.594 292.219 241.594C293.625 239.625 294.877 237.656 296.016 235.688C301.359 227.531 306 220.078 309.375 214.172C318.375 198.703 323.438 180.703 323.438 161.437C323.438 157.781 323.297 154.406 322.875 150.891Z" fill="#FFD561"/>
</g>
<g id="plusSign">
<path id="Vector_2" d="M407.812 330.469C407.812 334.406 404.719 337.5 400.781 337.5H393.75V344.531C393.75 348.469 390.656 351.562 386.719 351.562C382.781 351.562 379.688 348.469 379.688 344.531V337.5H372.656C368.719 337.5 365.625 334.406 365.625 330.469C365.625 326.531 368.719 323.438 372.656 323.438H379.688V316.406C379.688 312.469 382.781 309.375 386.719 309.375C390.656 309.375 393.75 312.469 393.75 316.406V323.438H400.781C404.719 323.438 407.812 326.531 407.812 330.469Z" fill="#31CFFF"/>
<path id="Vector_3" d="M112.5 344.531C112.5 348.469 109.406 351.562 105.469 351.562H84.375V372.656C84.375 376.594 81.2813 379.688 77.3438 379.688C73.4062 379.688 70.3125 376.594 70.3125 372.656V351.562H49.2188C45.2812 351.562 42.1875 348.469 42.1875 344.531C42.1875 340.594 45.2812 337.5 49.2188 337.5H70.3125V316.406C70.3125 312.469 73.4062 309.375 77.3438 309.375C81.2813 309.375 84.375 312.469 84.375 316.406V337.5H105.469C109.406 337.5 112.5 340.594 112.5 344.531Z" fill="#5FFFBA"/>
<path id="Vector_4" d="M421.875 77.3438C421.875 81.2813 418.781 84.375 414.844 84.375H393.75V105.469C393.75 109.406 390.656 112.5 386.719 112.5C382.781 112.5 379.688 109.406 379.688 105.469V84.375H358.594C354.656 84.375 351.562 81.2813 351.562 77.3438C351.562 73.4062 354.656 70.3125 358.594 70.3125H379.688V49.2188C379.688 45.2812 382.781 42.1875 386.719 42.1875C390.656 42.1875 393.75 45.2812 393.75 49.2188V70.3125H414.844C418.781 70.3125 421.875 73.4062 421.875 77.3438Z" fill="#5FFFBA"/>
<path id="Vector_5" d="M98.4375 77.3438C98.4375 81.2813 95.3438 84.375 91.4062 84.375H84.375V91.4062C84.375 95.3438 81.2813 98.4375 77.3438 98.4375C73.4062 98.4375 70.3125 95.3438 70.3125 91.4062V84.375H63.2812C59.3437 84.375 56.25 81.2813 56.25 77.3438C56.25 73.4062 59.3437 70.3125 63.2812 70.3125H70.3125V63.2812C70.3125 59.3437 73.4062 56.25 77.3438 56.25C81.2813 56.25 84.375 59.3437 84.375 63.2812V70.3125H91.4062C95.3438 70.3125 98.4375 73.4062 98.4375 77.3438Z" fill="#31CFFF"/>
<path id="Vector_6" d="M393.75 316.406C393.75 320.344 390.656 323.438 386.719 323.438H379.688V330.469C379.688 334.406 376.594 337.5 372.656 337.5C368.719 337.5 365.625 334.406 365.625 330.469V323.438H358.594C354.656 323.438 351.562 320.344 351.562 316.406C351.562 312.469 354.656 309.375 358.594 309.375H365.625V302.344C365.625 298.406 368.719 295.312 372.656 295.312C376.594 295.312 379.688 298.406 379.688 302.344V309.375H386.719C390.656 309.375 393.75 312.469 393.75 316.406Z" fill="#2D2220"/>
<path id="Vector_7" d="M98.4375 330.469C98.4375 334.406 95.3438 337.5 91.4062 337.5H70.3125V358.594C70.3125 362.531 67.2188 365.625 63.2812 365.625C59.3437 365.625 56.25 362.531 56.25 358.594V337.5H35.1562C31.2187 337.5 28.125 334.406 28.125 330.469C28.125 326.531 31.2187 323.438 35.1562 323.438H56.25V302.344C56.25 298.406 59.3437 295.312 63.2812 295.312C67.2188 295.312 70.3125 298.406 70.3125 302.344V323.438H91.4062C95.3438 323.438 98.4375 326.531 98.4375 330.469Z" fill="#2D2220"/>
<path id="Vector_8" d="M407.812 63.2812C407.812 67.2188 404.719 70.3125 400.781 70.3125H379.688V91.4062C379.688 95.3438 376.594 98.4375 372.656 98.4375C368.719 98.4375 365.625 95.3438 365.625 91.4062V70.3125H344.531C340.594 70.3125 337.5 67.2188 337.5 63.2812C337.5 59.3437 340.594 56.25 344.531 56.25H365.625V35.1562C365.625 31.2187 368.719 28.125 372.656 28.125C376.594 28.125 379.688 31.2187 379.688 35.1562V56.25H400.781C404.719 56.25 407.812 59.3437 407.812 63.2812Z" fill="#2D2220"/>
<path id="Vector_9" d="M84.375 63.2812C84.375 67.2188 81.2813 70.3125 77.3438 70.3125H70.3125V77.3438C70.3125 81.2813 67.2188 84.375 63.2812 84.375C59.3437 84.375 56.25 81.2813 56.25 77.3438V70.3125H49.2188C45.2812 70.3125 42.1875 67.2188 42.1875 63.2812C42.1875 59.3437 45.2812 56.25 49.2188 56.25H56.25V49.2188C56.25 45.2812 59.3437 42.1875 63.2812 42.1875C67.2188 42.1875 70.3125 45.2812 70.3125 49.2188V56.25H77.3438C81.2813 56.25 84.375 59.3437 84.375 63.2812Z" fill="#2D2220"/>
</g>
<g id="mainBulb">
<g id="Group">
<path id="Vector_10" d="M309.797 85.375H289.688C302.217 96.7656 311.766 111.25 317.405 127.562H332.437C327.797 111.953 320.063 97.6094 309.797 85.375Z" fill="#2D2220"/>
<path id="Vector_11" d="M253.125 310.375C253.125 310.375 253.125 316.141 253.125 324.438H210.938C210.938 316.141 210.938 310.375 210.938 310.375H253.125Z" fill="#BCBCBC"/>
<path id="Vector_12" d="M253.125 338.5H210.938V352.562H253.125V338.5Z" fill="#BCBCBC"/>
<path id="Vector_13" d="M210.938 366.625H253.125V379.984C253.125 389.969 242.438 399.531 232.031 404.734C221.625 399.531 210.938 389.969 210.938 379.984V366.625Z" fill="#BCBCBC"/>
</g>
<path id="Vector_14" d="M321.609 221.5C331.734 203.922 337.5 183.531 337.5 161.875C337.5 154.984 336.937 148.234 335.812 141.625H321.328C322.734 148.375 323.438 155.266 323.438 162.437C323.438 181.703 318.375 199.703 309.375 215.172C297.844 235.141 272.672 271.984 255.797 296.312H239.062V196.609C241.312 197.312 243.562 197.875 246.094 197.875C257.766 197.875 267.188 188.453 267.188 176.781C267.188 165.109 257.766 155.687 246.094 155.687C234.422 155.687 225 165.109 225 176.781V296.312H210.938V176.781C210.938 165.109 201.516 155.687 189.844 155.687C178.172 155.687 168.75 165.109 168.75 176.781C168.75 188.453 178.172 197.875 189.844 197.875C192.375 197.875 194.625 197.312 196.875 196.609V296.312H180.141C163.266 271.984 138.094 235.141 126.562 215.172C117.563 199.703 112.5 181.703 112.5 162.437C112.5 104.219 159.75 56.9687 217.969 56.9687C237.234 56.9687 255.234 62.1719 270.703 71.3125H295.875C274.922 53.1719 247.641 42.3438 217.969 42.3438C152.016 42.3438 98.4375 95.9219 98.4375 161.875C98.4375 183.531 104.203 203.922 114.328 221.5C126.141 241.75 150.047 278.031 168.75 305.734V324.437H161.719C157.781 324.437 154.688 327.531 154.688 331.469C154.688 335.406 157.781 338.5 161.719 338.5H168.75V352.562H161.719C157.781 352.562 154.688 355.656 154.688 359.594C154.688 363.531 157.781 366.625 161.719 366.625H168.75V379.984C168.75 401.781 200.953 422.875 217.969 422.875C234.984 422.875 267.188 401.781 267.188 379.984V366.625H274.219C278.156 366.625 281.25 363.531 281.25 359.594C281.25 355.656 278.156 352.562 274.219 352.562H267.188V338.5H274.219C278.156 338.5 281.25 335.406 281.25 331.469C281.25 327.531 278.156 324.437 274.219 324.437H267.188V305.734C285.891 278.031 309.797 241.75 321.609 221.5ZM246.094 169.609C249.891 169.609 252.984 172.844 252.984 176.641C252.984 180.578 249.877 183.672 246.094 183.672C242.311 183.672 239.203 180.578 239.203 176.641C239.203 172.844 242.297 169.609 246.094 169.609ZM189.844 183.812C186.047 183.812 182.953 180.578 182.953 176.781C182.953 172.844 186.047 169.75 189.844 169.75C193.641 169.75 196.734 172.844 196.734 176.781C196.734 180.578 193.641 183.812 189.844 183.812ZM253.125 379.984C253.125 389.969 242.438 399.531 232.031 404.734C226.969 407.266 221.906 408.812 217.969 408.812C206.297 408.812 182.812 394.75 182.812 379.984V366.625H253.125V379.984ZM253.125 352.562H182.812V338.5H253.125V352.562ZM253.125 324.437H182.812C182.812 316.141 182.812 310.375 182.812 310.375H253.125C253.125 310.375 253.125 316.141 253.125 324.437Z" fill="#2D2220"/>
</g>
</g>
</svg>
